<mxfile host="app.diagrams.net" modified="2024-07-08T02:06:43.727Z" agent="Mozilla/5.0 (Windows NT 10.0; Win64; x64) AppleWebKit/537.36 (KHTML, like Gecko) Chrome/126.0.0.0 Safari/537.36" etag="V8aLFJ1vzLJYEbLbayUf" version="24.6.4" type="github">
  <diagram name="第 1 页" id="LD1kjzCdp_m0qpPJYTHc">
    <mxGraphModel dx="2261" dy="746" grid="1" gridSize="10" guides="1" tooltips="1" connect="1" arrows="1" fold="1" page="1" pageScale="1" pageWidth="827" pageHeight="1169" math="0" shadow="0">
      <root>
        <mxCell id="0" />
        <mxCell id="1" parent="0" />
        <mxCell id="vgpnjKFktsKrz5Vn-s8V-1" value="" style="rounded=0;whiteSpace=wrap;html=1;" vertex="1" parent="1">
          <mxGeometry x="120" y="110" width="600" height="530" as="geometry" />
        </mxCell>
        <mxCell id="vgpnjKFktsKrz5Vn-s8V-2" value="" style="shape=cylinder3;whiteSpace=wrap;html=1;boundedLbl=1;backgroundOutline=1;size=15;" vertex="1" parent="1">
          <mxGeometry x="-160" y="190" width="60" height="80" as="geometry" />
        </mxCell>
        <mxCell id="vgpnjKFktsKrz5Vn-s8V-3" value="" style="rounded=0;whiteSpace=wrap;html=1;" vertex="1" parent="1">
          <mxGeometry x="160" y="390" width="540" height="240" as="geometry" />
        </mxCell>
        <mxCell id="vgpnjKFktsKrz5Vn-s8V-4" value="prometheus" style="rounded=1;whiteSpace=wrap;html=1;" vertex="1" parent="1">
          <mxGeometry x="160" y="390" width="120" height="60" as="geometry" />
        </mxCell>
      </root>
    </mxGraphModel>
  </diagram>
</mxfile>
